<svg viewBox="0 0 42 42" xmlns="http://www.w3.org/2000/svg" xmlns:serif="http://www.serif.com/" fill-rule="evenodd" clip-rule="evenodd" stroke-linejoin="round" stroke-miterlimit="1.414"><path serif:id="calendar copy" d="M40.867 14.249v-6.75c0-1.24-1.018-2.249-2.27-2.249h-7.568v2.249c0 .416-.339.75-.757.75a.752.752 0 0 1-.757-.75V.75c0-.414.339-.75.757-.75s.757.336.757.75v2.999h7.568c2.086 0 3.783 1.684 3.783 3.75v30.752c0 2.068-1.697 3.749-3.783 3.749H3.784C1.698 42 0 40.319 0 38.251V7.499c0-2.065 1.696-3.748 3.784-3.75h6.055V5.25H3.784c-1.252 0-2.27 1.009-2.27 2.249v6.75h39.353zM38.597 40.5c1.254-.002 2.27-1.011 2.27-2.249V15.75H1.514v22.501c0 1.24 1.018 2.249 2.27 2.249h34.813zM11.655 23.401l.908 1.199 1.816-1.35V34.5h1.514V21.751l-1.211-.601-3.027 2.251zm17.103-1.65v1.499h-4.541v3.018l1.381.034c2.235-.001 4.068 1.814 4.068 4.049 0 2.232-1.833 4.05-4.086 4.05a4.104 4.104 0 0 1-3.715-2.361l1.376-.625a2.585 2.585 0 0 0 2.339 1.484c1.418 0 2.572-1.143 2.572-2.548 0-1.406-1.154-2.551-2.572-2.551l-2.876-.068v-5.981h6.054zM12.109 8.249a.752.752 0 0 0 .757-.75V5.25h15.135V3.749H12.866V.75a.754.754 0 0 0-.757-.75.754.754 0 0 0-.757.75v6.749c0 .416.339.75.757.75z"/></svg>