<svg height="10" viewBox="0 0 274 10" width="274" xmlns="http://www.w3.org/2000/svg"><path d="m0 8.97 7.433-7.525 8.364 7.455 7.523-7.62 7.616 7.71 7.625-7.72 7.555 7.65 7.62-7.716 7.616 7.71 7.507-7.6 7.474 7.567 7.616-7.71 7.545 7.639 7.56-7.656 7.686 7.782 7.695-7.79 7.757 7.854 7.901-8 7.69 7.786 7.434-7.341 7.363 7.455 7.525-7.619 7.615 7.71 7.626-7.72 7.555 7.65 7.62-7.716 7.616 7.71 7.507-7.6 7.474 7.567 7.615-7.71 7.545 7.639 7.561-7.656 7.686 7.782 7.694-7.79 7.756 7.853 7.902-8 7.69 7.786" fill="none" stroke="#ffffff" stroke-width="1.5"/></svg>