<svg xmlns="http://www.w3.org/2000/svg" width="274" height="10" viewBox="0 0 274 10">
    <path stroke-width="1.5" fill="none" fill-rule="evenodd" stroke="#25252f" d="M0 8.97l7.433-7.525L15.797 8.9 23.32 1.28l7.616 7.71 7.625-7.72 7.555 7.65 7.62-7.716 7.616 7.71 7.507-7.6 7.474 7.567 7.616-7.71 7.545 7.639 7.56-7.656 7.686 7.782 7.695-7.79L122.192 9l7.901-8 7.69 7.786 7.434-7.341L152.58 8.9l7.525-7.619 7.615 7.71 7.626-7.72 7.555 7.65 7.62-7.716 7.616 7.71 7.507-7.6 7.474 7.567 7.615-7.71 7.545 7.639 7.561-7.656 7.686 7.782 7.694-7.79L258.975 9l7.902-8 7.69 7.786L282"/>
</svg>
